Coordinates
version=1
nRows=30
nColumns=38
inDegrees=no

Units are S.I. units (second, meters, Newtons, ...)
If the header above contains a line with 'inDegrees', this indicates whether rotational values are in degrees (yes) or radians (no).

endheader
time	pelvis_tilt	pelvis_list	pelvis_rotation	pelvis_tx	pelvis_ty	pelvis_tz	hip_flexion_r	hip_adduction_r	hip_rotation_r	knee_angle_r	ankle_angle_r	subtalar_angle_r	mtp_angle_r	hip_flexion_l	hip_adduction_l	hip_rotation_l	knee_angle_l	ankle_angle_l	subtalar_angle_l	mtp_angle_l	lumbar_extension	lumbar_bending	lumbar_rotation	arm_flex_r	arm_add_r	arm_rot_r	elbow_flex_r	pro_sup_r	wrist_flex_r	wrist_dev_r	arm_flex_l	arm_add_l	arm_rot_l	elbow_flex_l	pro_sup_l	wrist_flex_l	wrist_dev_l
0.56	-2.31162	1.49213	-2.57467	0.833795	0.0984607	0.979472	0.0597416	-0.215688	-0.100931	1.05271	-0.110754	0	0	0.367495	0.0553339	-0.289568	0.545	0.0595866	0	0	-0.242922	-0.110881	0.190898	-0.134356	-0.231247	-0.000991384	0.421152	1.41718	0	0	-0.0605387	-0.249952	0.36754	0.454971	1.28253	0	0
0.57	-2.23373	1.48781	-2.65369	0.833429	0.107059	0.980415	0.0969485	-0.224896	-0.0824005	1.10283	-0.154824	0	0	0.36173	0.0650842	-0.289269	0.545428	0.0659685	0	0	-0.239807	-0.120031	0.188459	-0.133288	-0.231508	0.00540072	0.425074	1.41045	0	0	-0.0608303	-0.253467	0.373445	0.458137	1.26827	0	0
0.58	-2.22261	1.48494	-2.66274	0.832887	0.115657	0.981947	0.126199	-0.228572	-0.0682048	1.14618	-0.190235	0	0	0.349838	0.0729042	-0.28329	0.541549	0.0716537	0	0	-0.241289	-0.12387	0.18431	-0.131969	-0.231888	0.00856784	0.428731	1.40706	0	0	-0.0585289	-0.253945	0.37624	0.456746	1.26167	0	0
0.59	-2.21373	1.47828	-2.66602	0.83225	0.12359	0.984397	0.15203	-0.234713	-0.0559141	1.18581	-0.208867	0	0	0.332947	0.0848697	-0.278757	0.529647	0.0708409	0	0	-0.247577	-0.131107	0.176238	-0.126165	-0.229905	0.00992463	0.427862	1.40415	0	0	-0.0512621	-0.253598	0.378558	0.450419	1.25693	0	0
0.6	-2.32059	1.4775	-2.55934	0.832643	0.132159	0.987114	0.168203	-0.225741	-0.0400171	1.21863	-0.211774	0	0	0.308234	0.0853614	-0.27015	0.519388	0.0755046	0	0	-0.257603	-0.127814	0.176841	-0.121381	-0.228823	0.00855177	0.424778	1.40178	0	0	-0.0445783	-0.250494	0.378494	0.441012	1.254	0	0
0.61	-2.38507	1.48025	-2.49078	0.831986	0.140609	0.989102	0.189468	-0.21805	-0.0305732	1.24902	-0.205644	0	0	0.289784	0.0846208	-0.262734	0.509262	0.0812736	0	0	-0.261298	-0.120445	0.174639	-0.117774	-0.229851	0.00671357	0.421595	1.40037	0	0	-0.0390884	-0.244633	0.374202	0.431181	1.25557	0	0
0.62	-2.48919	1.49232	-2.38403	0.831347	0.149538	0.989973	0.213885	-0.199712	-0.0227337	1.27543	-0.194565	0	0	0.278021	0.0737522	-0.253147	0.505508	0.0945615	0	0	-0.25678	-0.102321	0.176879	-0.118945	-0.233989	0.00721468	0.421497	1.39913	0	0	-0.0380721	-0.23688	0.36775	0.423558	1.26147	0	0
0.63	-2.4772	1.48596	-2.38927	0.830663	0.157229	0.992638	0.233831	-0.204766	-0.0156677	1.29662	-0.185855	0	0	0.258694	0.0832411	-0.252256	0.4917	0.0921682	0	0	-0.263498	-0.107503	0.168963	-0.108638	-0.23051	0.00538409	0.410842	1.39971	0	0	-0.0318709	-0.23493	0.360336	0.418209	1.26954	0	0
0.64	-2.6992	1.51189	-2.16902	0.830167	0.167162	0.991335	0.265359	-0.170157	-0.00906095	1.31676	-0.174961	0	0	0.27407	0.0527188	-0.237847	0.530334	0.122161	0	0	-0.243721	-0.07338	0.17953	-0.119916	-0.239743	0.00877338	0.418715	1.39911	0	0	-0.0393755	-0.225487	0.352655	0.414807	1.28087	0	0
0.65	-2.64372	1.51102	-2.21826	0.82942	0.17487	0.993078	0.289954	-0.172791	-0.00278948	1.33154	-0.170817	0	0	0.258266	0.0599276	-0.23938	0.513473	0.12119	0	0	-0.243392	-0.0762071	0.172776	-0.112493	-0.237417	0.00997957	0.410902	1.39744	0	0	-0.0359434	-0.224878	0.346496	0.412381	1.28714	0	0
0.66	-2.48297	1.49909	-2.37002	0.828362	0.181978	0.995768	0.311185	-0.191041	0.0039041	1.34177	-0.170049	0	0	0.228918	0.0825819	-0.245279	0.473147	0.108937	0	0	-0.249852	-0.0930061	0.159973	-0.0995656	-0.23083	0.00515538	0.398127	1.40063	0	0	-0.0295546	-0.226893	0.336615	0.411012	1.29683	0	0
0.67	-2.4329	1.48559	-2.41515	0.827527	0.189804	0.99844	0.325629	-0.205458	0.0121868	1.34648	-0.168951	0	0	0.19718	0.098735	-0.256749	0.440934	0.101293	0	0	-0.258723	-0.106363	0.152246	-0.0907569	-0.226197	-0.00263447	0.389703	1.40802	0	0	-0.0251734	-0.22837	0.327376	0.411078	1.30833	0	0
0.68	-2.51537	1.50178	-2.3291	0.827038	0.198476	0.998067	0.351167	-0.186589	0.0134551	1.35004	-0.16303	0	0	0.192821	0.0885946	-0.23653	0.438844	0.114009	0	0	-0.246668	-0.0876266	0.154343	-0.095502	-0.230132	-0.0030704	0.393651	1.40967	0	0	-0.0283944	-0.226799	0.326584	0.41376	1.31091	0	0
0.69	-2.50358	1.48706	-2.33512	0.826302	0.206381	1.00104	0.357672	-0.19981	0.018409	1.34506	-0.159729	0	0	0.163637	0.101085	-0.24538	0.420321	0.108561	0	0	-0.259495	-0.0991089	0.146693	-0.089206	-0.227566	-0.00396795	0.390276	1.41233	0	0	-0.0231934	-0.230041	0.326824	0.415303	1.3154	0	0
0.7	-2.55342	1.48668	-2.27915	0.825574	0.214654	1.00243	0.369213	-0.198008	0.0180684	1.33755	-0.153709	0	0	0.144364	0.102331	-0.236944	0.408111	0.111971	0	0	-0.261715	-0.094762	0.142803	-0.0892774	-0.228754	-0.00486709	0.392381	1.41277	0	0	-0.0211315	-0.230951	0.329983	0.416416	1.31605	0	0
0.71	-2.66593	1.50083	-2.15978	0.824837	0.223213	1.00195	0.388996	-0.182745	0.0124256	1.32897	-0.144925	0	0	0.139656	0.0912233	-0.218593	0.406826	0.12493	0	0	-0.250947	-0.0759063	0.141815	-0.0952241	-0.233197	-0.00493709	0.398599	1.41258	0	0	-0.022641	-0.229412	0.33248	0.417367	1.31611	0	0
0.72	-2.71554	1.50005	-2.10096	0.823907	0.231313	1.0031	0.397926	-0.182661	0.00851702	1.31415	-0.136583	0	0	0.122191	0.0924192	-0.208118	0.395994	0.126073	0	0	-0.25301	-0.071244	0.134851	-0.0965181	-0.235092	-0.00126343	0.404093	1.40832	0	0	-0.0195939	-0.230334	0.337456	0.417566	1.31463	0	0
0.73	-2.68675	1.48903	-2.12102	0.822805	0.238855	1.00545	0.412984	-0.207897	-0.00758815	1.30899	-0.14554	0	0	0.0964951	0.104416	-0.200288	0.378709	0.116951	0	0	-0.264477	-0.0776696	0.125252	-0.0908143	-0.234036	0.000297401	0.401678	1.403	0	0	-0.0125548	-0.231605	0.341289	0.41553	1.31172	0	0
0.74	-2.79327	1.49629	-2.00543	0.822129	0.247254	1.00525	0.410861	-0.181854	0.00429719	1.27398	-0.119283	0	0	0.0852011	0.0950168	-0.191499	0.372706	0.130646	0	0	-0.258836	-0.0638532	0.120518	-0.0940021	-0.236164	0.0019407	0.404979	1.40063	0	0	-0.0121913	-0.231099	0.34562	0.415485	1.30933	0	0
0.75	-2.77725	1.48354	-2.01291	0.821076	0.254792	1.00766	0.418349	-0.207655	-0.0171492	1.26003	-0.125821	0	0	0.0561511	0.10494	-0.185144	0.355574	0.127081	0	0	-0.273371	-0.0690399	0.111209	-0.0867096	-0.2343	0.00325946	0.399984	1.39617	0	0	-0.00401389	-0.230514	0.346215	0.410264	1.30799	0	0
0.76	-2.87773	1.49119	-1.90395	0.820353	0.26297	1.00713	0.415576	-0.180836	-0.00353948	1.21744	-0.0989885	0	0	0.0469034	0.0949381	-0.178474	0.349558	0.13855	0	0	-0.266541	-0.0552019	0.107001	-0.0880375	-0.235636	0.00454588	0.399836	1.39604	0	0	-0.00274893	-0.2284	0.347358	0.407498	1.30866	0	0
0.77	-2.93324	1.48843	-1.84036	0.819585	0.270833	1.00789	0.415139	-0.178	-0.00786319	1.18396	-0.0880349	0	0	0.0285249	0.0929136	-0.171048	0.340044	0.142574	0	0	-0.270702	-0.0493626	0.101042	-0.0840738	-0.235211	0.00679664	0.395375	1.39492	0	0	0.00293108	-0.225946	0.346742	0.400946	1.31081	0	0
0.78	-2.9767	1.48709	-1.78903	0.818796	0.278623	1.00836	0.415806	-0.175964	-0.0135222	1.1484	-0.0747687	0	0	0.0123687	0.0909672	-0.164306	0.330481	0.147236	0	0	-0.273018	-0.0437561	0.0951535	-0.0788588	-0.234388	0.00859735	0.388363	1.39248	0	0	0.00884949	-0.222771	0.343043	0.392744	1.31735	0	0
0.79	-3.01481	1.48599	-1.74342	0.81817	0.286349	1.00869	0.416232	-0.173715	-0.0194958	1.11095	-0.0622553	0	0	-0.00256772	0.0889176	-0.157239	0.322064	0.15248	0	0	-0.275075	-0.0387452	0.0895174	-0.0731115	-0.233234	0.0113345	0.380545	1.38985	0	0	0.0148611	-0.219958	0.337931	0.384594	1.32699	0	0
0.8	-3.05384	1.48556	-1.69732	0.817595	0.293886	1.0089	0.416692	-0.171083	-0.0264709	1.07121	-0.0507878	0	0	-0.0153266	0.0861219	-0.15104	0.316043	0.157791	0	0	-0.276993	-0.0334642	0.0842654	-0.0666261	-0.232151	0.0135086	0.372284	1.3881	0	0	0.0206481	-0.217213	0.331472	0.37789	1.33707	0	0
0.81	-3.08642	1.48505	-1.65807	0.817054	0.301387	1.009	0.416806	-0.169109	-0.0343513	1.03009	-0.0395861	0	0	-0.0272767	0.0835787	-0.146142	0.311104	0.162983	0	0	-0.279141	-0.0287523	0.0793114	-0.0600148	-0.23077	0.0137946	0.364073	1.3868	0	0	0.0263815	-0.21461	0.324393	0.371612	1.34719	0	0
0.82	-3.11334	1.48271	-1.62385	0.816281	0.308969	1.00921	0.426181	-0.188793	-0.0777774	1.00644	-0.0381396	0	0	-0.0416681	0.0822631	-0.138163	0.304901	0.166879	0	0	-0.283458	-0.0240419	0.0736901	-0.0537372	-0.230221	0.0153578	0.356943	1.38515	0	0	0.0324228	-0.211382	0.315977	0.365021	1.35792	0	0
0.83	3.13751	1.48197	-1.58638	0.816005	0.316391	1.00919	0.425599	-0.185864	-0.0885873	0.964328	-0.0286207	0	0	-0.0533086	0.079408	-0.132357	0.300595	0.171569	0	0	-0.286595	-0.0197979	0.070365	-0.0475839	-0.229052	0.0163537	0.350402	1.38385	0	0	0.0379696	-0.209643	0.307813	0.360798	1.3689	0	0
0.84	3.10825	1.48072	-1.5526	0.815844	0.323768	1.00917	0.42402	-0.182809	-0.100547	0.92094	-0.0212251	0	0	-0.0647769	0.0762609	-0.127902	0.297816	0.175851	0	0	-0.290778	-0.0159992	0.0676737	-0.0418565	-0.227786	0.0159398	0.345201	1.38309	0	0	0.0438736	-0.208387	0.30037	0.357049	1.37928	0	0
0.85	3.07691	1.4787	-1.51724	0.815787	0.331201	1.00917	0.420897	-0.179196	-0.114117	0.87639	-0.0154704	0	0	-0.0773647	0.0728665	-0.123618	0.294321	0.179206	0	0	-0.29592	-0.0120126	0.0657919	-0.0368106	-0.226778	0.0154033	0.341124	1.38325	0	0	0.0498507	-0.207395	0.292922	0.353834	1.39061	0	0
